<svg xmlns="http://www.w3.org/2000/svg" fill="#FFFFFF" viewBox="0 0 352.5 369.7" style="enable-background:new 0 0 352.5 369.7" xml:space="preserve"><path d="M350.9 220.3c-5.7-37.6-27.5-64.4-59.1-83.9-5.2-3.2-10.7-6-15.7-8.8 3.6-12.7 7.6-25 10.6-37.5 4.2-17.6 6-35.5 1.5-53.3-4.9-18.8-16.5-31.2-35.8-35.4-20.4-4.5-36.7 2.3-48.7 19.1-3.7 5.1-6.6 10.8-9.1 16.5-6.8 15.9-9.5 32.8-11 49.9-.6 6.9-1 13.8-1.5 20.7h-11.6c-.2-2.7-.4-5.1-.7-7.6-1.4-11.9-2.2-23.8-4.3-35.6-3-17.3-8-34-19.7-47.8C122-11.1 78-2.9 65.7 31.4c-4.8 13.3-4.8 27.1-3.3 40.9 2 19.1 7.5 37.4 13.9 54.5-12 8.2-24 15.2-34.5 24-53.8 45.5-55.9 126.3-4.9 173.9C53.4 340 72.8 350.4 94 357.4c37.8 12.4 76.5 14.5 115.8 10.4 28.4-2.9 55.5-10.2 80.5-24.4 46-26.2 68.4-71.1 60.6-123.1zm-36.2 55.3c-19.4 19.2-43.4 30.5-69.4 37.3-58.1 15.3-115.1 12.8-170.4-12-14-6.3-26.7-14.8-37.6-25.8-22.9-23.4-27.4-51.6-12.6-81 10.5-21 27.5-35.5 47.6-46.7 7.5-4.2 15.4-7.6 23.4-11.5-3.2-8.8-6.8-17.5-9.7-26.5-6.3-19.4-11.3-39-9.2-59.6.5-5.5 1.9-11.2 4.1-16.3 8.5-19.2 34.2-24.6 50-10.7 8 7 12.4 16.3 15.7 26.2 7.4 22.2 9.1 45.2 9.4 68.3v5.7h40.2v-5.8c.3-22.7 1.9-45.2 9.3-66.8 2.7-7.9 6.6-15.7 11.4-22.5 7.4-10.5 18.2-14.5 31.1-12 13.1 2.5 21.4 10.1 25.2 22.7 4.7 15.4 3.2 31.1-.6 46.3-4.3 17-9.9 33.7-15 50.4 10.2 5.4 21.2 10.6 31.5 16.9 14.9 9.1 27.4 21 36.4 36.2 18.4 30.7 14.6 61.9-10.8 87.2z"/><path d="M223.6 237.2c.3.6.7 1.2 1.1 1.8-.4-.6-.8-1.2-1.1-1.8zm-4.1-23.2c-.1.6-.1 1.2-.2 1.8l.3-2.7c0 .3-.1.6-.1.9zm-.3 5.1v.4-1.9 1.5z" style="fill:#fff"/><path d="M133.7 219.1c-.2 8.1-1.9 15.6-7 21.9-6.8 8.3-16.5 8.4-23.4.3-9.7-11.3-9.6-33.4.2-44.4 6.8-7.7 16.1-7.7 22.8.1 5.4 6.3 7.1 14 7.4 22.1zM250.2 240.6c-7.2 9.1-17.7 8.9-24.7-.4-.3-.4-.6-.8-.8-1.2-.4-.6-.8-1.2-1.1-1.8-.4-.6-.7-1.2-1-1.9-2-4.1-3-8.5-3.3-13.2-.1-.9-.1-1.8-.1-2.7v-1.9c0-.6 0-1.2.1-1.8 0-.6.1-1.2.2-1.8 0-.3.1-.6.1-.9 0-.3.1-.6.1-.9.1-.6.2-1.2.3-1.7 1-4.6 2.8-8.9 5.9-12.8 6.9-8.8 17.1-8.7 24.1 0 8.9 11.1 9 31.9.2 43z"/></svg>