<svg xmlns="http://www.w3.org/2000/svg" viewBox="0 0 431.22 207.83"><defs><style>.cls-1{fill:#fff;}</style></defs><g id="Layer_2" data-name="Layer 2"><g id="Layer_1-2" data-name="Layer 1"><path class="cls-1" d="M330,102.84c-.8-.17-1.61-.33-2.41-.48.42-.17.82-.35,1.22-.54a19.91,19.91,0,0,0,7.57-6.21,25.1,25.1,0,0,0,4-9.25,52.7,52.7,0,0,0,1.24-11.78,77.77,77.77,0,0,0-.55-9.82A27.67,27.67,0,0,0,339,57.07a18.48,18.48,0,0,0-4.55-5.72A26.57,26.57,0,0,0,326.86,47l-10.74-4.37a22.52,22.52,0,0,1-4.34-2.26,7.78,7.78,0,0,1-2.41-2.69,9.58,9.58,0,0,1-1-3.52,48.81,48.81,0,0,1-.2-5,28.41,28.41,0,0,1,.4-4.87,12.09,12.09,0,0,1,1.52-4.16A9.3,9.3,0,0,1,313,17.39a8.69,8.69,0,0,1,4.68-1.13c3.58,0,6.14,1.2,7.65,3.61a15.66,15.66,0,0,1,2.26,8.54v3.25h14V24.6a22.1,22.1,0,0,0-6.33-15.53,24.51,24.51,0,0,0-7.51-5.23,22.92,22.92,0,0,0-9.57-2,24,24,0,0,0-10.67,2.19,20.83,20.83,0,0,0-7.36,5.87,24.53,24.53,0,0,0-4.55,8.75,37.7,37.7,0,0,0-1.51,10.73q0,9.45,3.1,15.73t12.18,10.1l10.06,4.24a33.43,33.43,0,0,1,4.19,2.12,7.74,7.74,0,0,1,2.55,2.54,11.31,11.31,0,0,1,1.1,4.09,63.68,63.68,0,0,1,.27,6.49c0,2.26-.06,4.31-.2,6.15a11.5,11.5,0,0,1-1.3,4.73,7.66,7.66,0,0,1-3.1,3,12.07,12.07,0,0,1-5.58,1.06q-5.37,0-7.64-3.17a12,12,0,0,1-2.28-7.13V74.86h-14v5.37a23.41,23.41,0,0,0,1.86,9.38,24.89,24.89,0,0,0,5,7.56l.44.44q-6.78-1-13.66-1.88L273.65,56.12a21.93,21.93,0,0,0,9.94-10.3,38.24,38.24,0,0,0,2.82-15.51Q286.41,0,260.31,0H236.53V91.71q-4.92-.18-9.88-.27L206.23,0H193.9L173.16,92.87q-4.8.34-9.56.78V0H149.24L130.39,54.67h-.29L111.11,0H96.9V103.24h2.4C63,110.93,29.53,122.1,0,136.1c48.14-17.64,106.79-29.5,171-33.3q7.41-.43,14.92-.73,14-.55,28.28-.57h1.46q6.69,0,13.31.12c2.55,0,5.08.1,7.61.17q7.44.19,14.79.55c67.66,3.18,129.53,15.31,179.9,33.77C401.16,121.86,367,110.53,330,102.84ZM148.81,95.16q-18.94,2.2-37.12,5.61V40.46H112l14.5,44.37h7.39l14.65-44.37h.29Zm51-65.43h.29l7.25,37.41H192.6ZM187.85,92,190,81.06h20.15l2,10.29Q199.91,91.43,187.85,92Zm63.47.44V59.16h8.85L271,94Q261.26,93,251.32,92.43ZM271.19,36.9a14.07,14.07,0,0,1-1.6,5A8.47,8.47,0,0,1,266,45a14.83,14.83,0,0,1-6.24,1.09h-8.41V13.92H259q7.68,0,10.44,4.06a13.81,13.81,0,0,1,1.74,5.15,48.18,48.18,0,0,1,.43,6.89A48,48,0,0,1,271.19,36.9Z"/><path class="cls-1" d="M171,109.91q-5.43.32-10.81.73l-6.46,61.08h-.29l-10.68-59.58q-7.2.69-14.27,1.55l-10,56.44h-.3L112,115.84q-7.53,1.08-14.91,2.32l13.35,89.67h13.92l11.17-67h.29l11.3,67h13.92l14.63-98.18Z"/><path class="cls-1" d="M211,108.63q-7.12,0-14.17.21l-22.11,99h14.79l4.35-22.18H214l4.35,22.18h14.79Zm-14.53,63.09,7.25-37.4H204l7.25,37.4Z"/><path class="cls-1" d="M268.56,110.46l-10.91,66.2h-.29l-11-67.43q-4.91-.21-9.84-.34l-5.73-.14L251,207.83h13l19.71-96.14Q276.21,111,268.56,110.46Z"/><path class="cls-1" d="M308.83,193v-30.3h25.52V148.82H308.83V118.51h27.31q-20.47-3.49-42.1-5.8v95.12h44.08V193Z"/></g></g></svg>