<?xml version="1.0" encoding="utf-8"?>
<!-- Generator: Adobe Illustrator 25.2.1, SVG Export Plug-In . SVG Version: 6.00 Build 0)  -->
<svg version="1.1" id="Layer_1" xmlns="http://www.w3.org/2000/svg" xmlns:xlink="http://www.w3.org/1999/xlink" x="0px" y="0px"
	 viewBox="0 0 1194.5 535.5" style="enable-background:new 0 0 1194.5 535.5;" xml:space="preserve">
<style type="text/css">
	.st0{fill:none;stroke:#FFFFFF;stroke-miterlimit:10;}
</style>
<path class="st0" d="M0,535C160,524,513.8,372,636.5,263.1c47.2-41.9,87.4-91.9,117.8-147.3c7.6-13.8,14.8-28.8,14.1-44.6
	c-0.6-12.5-6.2-24.4-14.2-34c-20.9-25-66.7-34.1-88.9-5.6c-16.4,21.1-20,29.4-20,29.4c1.8-4.2-16.5-24.4-19.7-28.1
	c-10.6-12.6-23.3-23.7-39-29.3c-19.4-6.8-43.6-3-56.5,13.1c-5.9,7.3-9,16.6-9.8,26c-2.3,25.2,11.1,49.5,28.6,67.6
	C608.1,172,687.6,212,773.5,208.3c140.4-6.1,267.1-66.2,378.3-148.6l42.4-44.7"/>
</svg>
